<svg width="12" height="8" viewBox="0 0 12 8" fill="none" xmlns="http://www.w3.org/2000/svg">
<path d="M10.9999 5.41L6.70995 1.17C6.61699 1.07628 6.50638 1.00188 6.38453 0.951114C6.26267 0.900345 6.13196 0.874207 5.99995 0.874207C5.86794 0.874207 5.73723 0.900345 5.61537 0.951114C5.49351 1.00188 5.38291 1.07628 5.28995 1.17L1.04995 5.41C0.95622 5.50297 0.881826 5.61357 0.831057 5.73543C0.780288 5.85729 0.75415 5.98799 0.75415 6.12C0.75415 6.25202 0.780288 6.38272 0.831057 6.50458C0.881826 6.62644 0.95622 6.73704 1.04995 6.83C1.23731 7.01626 1.49076 7.1208 1.75495 7.1208C2.01913 7.1208 2.27259 7.01626 2.45995 6.83L5.99995 3.29L9.53995 6.83C9.72621 7.01475 9.97761 7.1189 10.2399 7.12C10.3716 7.12077 10.502 7.09554 10.6239 7.04578C10.7457 6.99601 10.8565 6.92269 10.9499 6.83C11.047 6.74039 11.1254 6.63242 11.1805 6.51235C11.2356 6.39227 11.2664 6.26246 11.271 6.13043C11.2757 5.99839 11.2541 5.86675 11.2076 5.74309C11.161 5.61944 11.0905 5.50623 10.9999 5.41Z" fill="#878787"/>
</svg>
